<mxfile host="app.diagrams.net" modified="2024-04-11T01:30:42.926Z" agent="Mozilla/5.0 (Windows NT 10.0; Win64; x64) AppleWebKit/537.36 (KHTML, like Gecko) Chrome/123.0.0.0 Safari/537.36" etag="YJZkn0JNvXRq4h36Kz8c" version="24.2.3" type="device">
  <diagram name="PÃ¡gina-1" id="1-6PUafRODEjtdLCIClu">
    <mxGraphModel dx="1363" dy="809" grid="1" gridSize="10" guides="1" tooltips="1" connect="1" arrows="1" fold="1" page="1" pageScale="1" pageWidth="827" pageHeight="1169" math="0" shadow="0">
      <root>
        <mxCell id="0" />
        <mxCell id="1" parent="0" />
        <mxCell id="VPC" value="&lt;div&gt;&lt;br&gt;&lt;/div&gt;AWS VPC" style="rounded=0;whiteSpace=wrap;html=1;fillColor=#d9edf7;" vertex="1" parent="1">
          <mxGeometry x="33" y="20" width="760" height="600" as="geometry" />
        </mxCell>
        <mxCell id="EKS" value="&lt;div&gt;&lt;br&gt;&lt;/div&gt;&lt;div&gt;&lt;br&gt;&lt;/div&gt;&lt;div&gt;&lt;br&gt;&lt;/div&gt;&lt;div&gt;&lt;br&gt;&lt;/div&gt;&lt;div&gt;&lt;br&gt;&lt;/div&gt;&lt;div&gt;&lt;br&gt;&lt;/div&gt;&lt;div&gt;&lt;br&gt;&lt;/div&gt;&lt;div&gt;&lt;br&gt;&lt;/div&gt;&lt;div&gt;&lt;br&gt;&lt;/div&gt;&lt;div&gt;&lt;br&gt;&lt;/div&gt;&lt;div&gt;&lt;br&gt;&lt;/div&gt;&lt;div&gt;&lt;br&gt;&lt;/div&gt;&lt;div&gt;&lt;br&gt;&lt;/div&gt;&lt;div&gt;&lt;br&gt;&lt;/div&gt;&lt;div&gt;&lt;br&gt;&lt;/div&gt;&lt;div&gt;&lt;br&gt;&lt;/div&gt;&lt;div&gt;&lt;br&gt;&lt;/div&gt;&lt;div&gt;&lt;br&gt;&lt;/div&gt;&lt;div&gt;&lt;br&gt;&lt;/div&gt;&lt;div&gt;&lt;br&gt;&lt;/div&gt;&lt;div&gt;&lt;br&gt;&lt;/div&gt;&lt;div&gt;&lt;br&gt;&lt;/div&gt;&lt;div&gt;&lt;br&gt;&lt;/div&gt;&lt;div&gt;&lt;br&gt;&lt;/div&gt;&lt;div&gt;&lt;br&gt;&lt;/div&gt;&lt;div&gt;&lt;br&gt;&lt;/div&gt;&lt;div&gt;&lt;br&gt;&lt;/div&gt;&lt;div&gt;&lt;br&gt;&lt;/div&gt;&lt;div&gt;&lt;br&gt;&lt;/div&gt;&lt;div&gt;&lt;br&gt;&lt;/div&gt;Amazon EKS" style="rounded=1;whiteSpace=wrap;html=1;fillColor=#f0ad4e;" vertex="1" parent="VPC">
          <mxGeometry x="20" y="50" width="235" height="500" as="geometry" />
        </mxCell>
        <mxCell id="NetworkPolicies" value="&lt;div&gt;&lt;br&gt;&lt;/div&gt;&lt;div&gt;&lt;br&gt;&lt;/div&gt;&lt;div&gt;&lt;br&gt;&lt;/div&gt;&lt;div&gt;&lt;br&gt;&lt;/div&gt;&lt;div&gt;&lt;br&gt;&lt;/div&gt;&lt;div&gt;&lt;br&gt;&lt;/div&gt;&lt;div&gt;&lt;br&gt;&lt;/div&gt;&lt;div&gt;&lt;br&gt;&lt;/div&gt;&lt;div&gt;&lt;br&gt;&lt;/div&gt;&lt;div&gt;&lt;br&gt;&lt;/div&gt;&lt;div&gt;&lt;br&gt;&lt;/div&gt;&lt;div&gt;&lt;br&gt;&lt;/div&gt;&lt;div&gt;&lt;br&gt;&lt;/div&gt;&lt;div&gt;&lt;br&gt;&lt;/div&gt;&lt;div&gt;&lt;br&gt;&lt;/div&gt;&lt;div&gt;&lt;br&gt;&lt;/div&gt;&lt;div&gt;&lt;br&gt;&lt;/div&gt;&lt;div&gt;&lt;br&gt;&lt;/div&gt;&lt;div&gt;&lt;br&gt;&lt;/div&gt;&lt;div&gt;&lt;br&gt;&lt;/div&gt;&lt;div&gt;&lt;br&gt;&lt;/div&gt;&lt;div&gt;&lt;br&gt;&lt;/div&gt;&lt;div&gt;&lt;br&gt;&lt;/div&gt;&lt;div&gt;&lt;br&gt;&lt;/div&gt;&lt;div&gt;&lt;br&gt;&lt;/div&gt;&lt;div&gt;&lt;br&gt;&lt;/div&gt;&lt;div&gt;&lt;br&gt;&lt;/div&gt;Network Policies" style="rounded=1;whiteSpace=wrap;html=1;fillColor=#f7ecb5;" vertex="1" parent="EKS">
          <mxGeometry x="20" y="10" width="190" height="420" as="geometry" />
        </mxCell>
        <mxCell id="AirflowServices" value="Airflow Services" style="rounded=1;whiteSpace=wrap;html=1;fillColor=#dff0d8;" vertex="1" parent="EKS">
          <mxGeometry x="50" y="20" width="130" height="370" as="geometry" />
        </mxCell>
        <mxCell id="RDS" value="Amazon RDS for Postgres" style="rounded=1;whiteSpace=wrap;html=1;fillColor=#5bc0de;" vertex="1" parent="VPC">
          <mxGeometry x="370" y="200" width="180" height="80" as="geometry" />
        </mxCell>
        <mxCell id="T4Uo5u1EjXTeUlvugHe7-5" style="edgeStyle=orthogonalEdgeStyle;rounded=0;orthogonalLoop=1;jettySize=auto;html=1;exitX=0;exitY=0.5;exitDx=0;exitDy=0;entryX=1;entryY=0.75;entryDx=0;entryDy=0;startArrow=classic;startFill=1;" edge="1" parent="VPC" source="Elasticache" target="EKS">
          <mxGeometry relative="1" as="geometry" />
        </mxCell>
        <mxCell id="Elasticache" value="Amazon Elasticache for Redis" style="rounded=1;whiteSpace=wrap;html=1;fillColor=#5bc0de;" vertex="1" parent="VPC">
          <mxGeometry x="370" y="384" width="200" height="80" as="geometry" />
        </mxCell>
        <mxCell id="ALB" value="AWS ALB" style="rounded=1;whiteSpace=wrap;html=1;fillColor=#f0ad4e;" vertex="1" parent="VPC">
          <mxGeometry x="410" y="480" width="120" height="80" as="geometry" />
        </mxCell>
        <mxCell id="T4Uo5u1EjXTeUlvugHe7-1" style="edgeStyle=orthogonalEdgeStyle;rounded=0;orthogonalLoop=1;jettySize=auto;html=1;exitX=0;exitY=0.5;exitDx=0;exitDy=0;entryX=1.007;entryY=0.382;entryDx=0;entryDy=0;entryPerimeter=0;startArrow=classic;startFill=1;" edge="1" parent="VPC" source="RDS" target="EKS">
          <mxGeometry relative="1" as="geometry" />
        </mxCell>
        <mxCell id="T4Uo5u1EjXTeUlvugHe7-8" style="edgeStyle=orthogonalEdgeStyle;rounded=0;orthogonalLoop=1;jettySize=auto;html=1;exitX=0;exitY=0.5;exitDx=0;exitDy=0;entryX=1.002;entryY=0.868;entryDx=0;entryDy=0;entryPerimeter=0;startArrow=classic;startFill=1;" edge="1" parent="VPC" source="ALB" target="EKS">
          <mxGeometry relative="1" as="geometry" />
        </mxCell>
      </root>
    </mxGraphModel>
  </diagram>
</mxfile>
